<svg xmlns="http://www.w3.org/2000/svg" width="64" height="64" viewBox="0 0 64 64"><defs><linearGradient id="g" x1="0" y1="64" x2="64" y2="0" gradientUnits="userSpaceOnUse"><stop offset="0" stop-color="#1d4a80"/><stop offset="1" stop-color="#3d86d4"/></linearGradient></defs><rect width="64" height="64" rx="15" fill="url(#g)"/><g transform="translate(15 15) scale(1.4167)" fill="none" stroke="#ffffff" stroke-width="2.1" stroke-linecap="round" stroke-linejoin="round"><path d="M3 7V5a2 2 0 0 1 2-2h2"/><path d="M17 3h2a2 2 0 0 1 2 2v2"/><path d="M21 17v2a2 2 0 0 1-2 2h-2"/><path d="M7 21H5a2 2 0 0 1-2-2v-2"/><circle cx="12" cy="12" r="3"/><path d="m16 16-1.9-1.9"/></g></svg>
